<?xml version="1.0" encoding="UTF-8"?>
<svg id="Layer_1" xmlns="http://www.w3.org/2000/svg" version="1.1" viewBox="0 0 1877.6 1007.7">
  <!-- Generator: Adobe Illustrator 29.1.0, SVG Export Plug-In . SVG Version: 2.1.0 Build 142)  -->
  <polygon points="304.5 848.6 233.5 760.6 300.4 689.6 267.3 689.6 188.6 771.2 188.6 689.6 159.1 689.6 159.1 848.6 188.6 848.6 188.6 807.9 214 782 270 848.6 304.5 848.6" fill="#7a9e7e" fill-rule="evenodd"/>
  <polygon points="387.3 689.6 387.3 848.6 500 848.6 500 823.6 416.8 823.6 416.8 689.6 387.3 689.6" fill="#7a9e7e" fill-rule="evenodd"/>
  <path d="M679.5,788.6h-59.7l29.8-69.6,29.9,69.6ZM635.3,689.6l-71.6,159.1h30.5l15.8-36.8h79.6l15.8,36.8h30.9l-71.8-159.1h-29.1Z" fill="#7a9e7e" fill-rule="evenodd"/>
  <path d="M848.5,778v-63.4h34.5c13,0,22.8,2.7,29.4,8.2,6.6,5.5,9.9,13.3,9.9,23.4s-3.3,17.8-9.9,23.4c-6.6,5.6-16.4,8.4-29.4,8.4h-34.5ZM819,689.6v159.1h29.5v-46.4h35.9c2.1,0,4.2,0,6.2-.2l32.4,46.5h31.8l-36.5-52.1c.8-.3,1.5-.6,2.3-1,10.1-4.5,17.8-10.9,23.3-19.3,5.5-8.4,8.2-18.4,8.2-30.1,0-17.7-6-31.6-18.1-41.6-12-10-28.7-15-49.9-15h-65.2Z" fill="#7a9e7e" fill-rule="evenodd"/>
  <path d="M1081.3,788.6l29.8-69.6,29.9,69.6h-59.7ZM1096.7,689.6l-71.6,159.1h30.5l15.8-36.8h79.6l15.8,36.8h30.9l-71.8-159.1h-29.1Z" fill="#7a9e7e" fill-rule="evenodd"/>
  <path d="M798.5,307.3l123.5-102h-123.5v102ZM922,486.3l-123.5-102v102h123.5ZM914.4,422.9c19.3-49.5,19.3-104.7,0-154.2l-93.3,77.1,93.3,77.1ZM949.8,239.5c31,67.8,31,144.8,0,212.6l41.5,34.3h88.4V205.2h-88.4l-41.5,34.3ZM776.5,161.1h347.3v369.4h-369.4V161.1h22.1Z" fill="#7a9e7e"/>
  <polygon points="1277.9 689.6 1277.9 848.6 1312.5 848.6 1312.5 755.2 1359.1 831.8 1375.6 831.8 1422.5 753.2 1422.7 848.6 1457.2 848.6 1456.8 689.6 1426.5 689.6 1368 788.3 1308.4 689.6 1277.9 689.6" fill="#7a9e7e" fill-rule="evenodd"/>
  <path d="M1595.9,818.4v-98.6h33.6c10.6,0,19.8,2,27.6,6,7.8,4,13.9,9.7,18.2,17,4.3,7.3,6.5,16.1,6.5,26.2s-2.2,18.7-6.5,26.1c-4.3,7.4-10.4,13.1-18.2,17.2-7.8,4-17,6-27.6,6h-33.6ZM1559.1,689.6v159.1h72.3c17.3,0,32.5-3.3,45.7-9.9,13.2-6.6,23.5-15.8,30.9-27.7,7.4-11.9,11.1-25.9,11.1-41.9s-3.7-30.2-11.1-42c-7.4-11.8-17.7-21-30.9-27.6-13.2-6.6-28.4-9.9-45.7-9.9h-72.3Z" fill="#7a9e7e" fill-rule="evenodd"/>
</svg>