<?xml version="1.0" encoding="UTF-8"?>
<svg id="Layer_1" xmlns="http://www.w3.org/2000/svg" version="1.1" viewBox="0 0 1762.1 434.4">
  <!-- Generator: Adobe Illustrator 29.1.0, SVG Export Plug-In . SVG Version: 2.1.0 Build 142)  -->
  <polygon points="468.5 248.4 488.3 228.2 531.9 280.1 558.8 280.1 503.5 211.6 555.6 156.3 529.8 156.3 468.5 219.8 468.5 156.3 445.5 156.3 445.5 280.1 468.5 280.1 468.5 248.4" fill="#7a9e7e" fill-rule="evenodd"/>
  <polygon points="623.2 156.3 623.2 280.1 711 280.1 711 260.6 646.2 260.6 646.2 156.3 623.2 156.3" fill="#7a9e7e" fill-rule="evenodd"/>
  <path d="M804.3,233.4l23.2-54.2,23.3,54.2h-46.5ZM816.3,156.3l-55.7,123.9h23.7l12.3-28.7h61.9l12.3,28.7h24.1l-55.9-123.9h-22.6Z" fill="#7a9e7e" fill-rule="evenodd"/>
  <path d="M1032.1,218.5c-5.1,4.4-12.8,6.5-22.9,6.5h-26.9v-49.4h26.9c10.1,0,17.8,2.1,22.9,6.4,5.1,4.2,7.7,10.3,7.7,18.2s-2.6,13.9-7.7,18.2M959.3,156.3v123.9h23v-36.1h28c1.6,0,3.3,0,4.8-.1l25.2,36.2h24.8l-28.4-40.6c.6-.2,1.2-.5,1.8-.8,7.8-3.5,13.9-8.5,18.1-15,4.2-6.5,6.4-14.4,6.4-23.4,0-13.8-4.7-24.6-14.1-32.4-9.4-7.8-22.3-11.7-38.8-11.7h-50.8Z" fill="#7a9e7e" fill-rule="evenodd"/>
  <path d="M1210,233.4h-46.5l23.2-54.2,23.3,54.2ZM1175.5,156.3l-55.7,123.9h23.7l12.3-28.7h61.9l12.3,28.7h24.1l-55.9-123.9h-22.6Z" fill="#7a9e7e" fill-rule="evenodd"/>
  <path d="M127.8,194l77.7-64.2h-77.7v64.2ZM205.5,306.6l-77.7-64.2v64.2h77.7ZM200.7,266.7c12.2-31.1,12.2-65.8,0-97l-58.7,48.5,58.7,48.5ZM222.9,151.3c19.5,42.6,19.5,91.1,0,133.7l26.1,21.5h55.6v-176.8h-55.6l-26.1,21.5ZM113.9,102.1h218.4v232.3H100.1V102.1h13.9Z" fill="#7a9e7e"/>
  <polygon points="1316.6 156.3 1316.6 280.1 1343.5 280.1 1343.5 207.4 1379.8 267 1392.7 267 1429.1 205.8 1429.3 280.1 1456.2 280.1 1455.8 156.3 1432.3 156.3 1386.7 233.2 1340.3 156.3 1316.6 156.3" fill="#7a9e7e" fill-rule="evenodd"/>
  <path d="M1590.3,179.8c8.3,0,15.4,1.6,21.5,4.7,6.1,3.1,10.8,7.5,14.2,13.3,3.4,5.7,5,12.5,5,20.4s-1.7,14.6-5,20.3c-3.4,5.8-8.1,10.2-14.2,13.4-6.1,3.1-13.2,4.7-21.5,4.7h-26.2v-76.8h26.2ZM1535.5,156.3v123.9h56.3c13.4,0,25.3-2.6,35.6-7.7,10.3-5.1,18.3-12.3,24.1-21.6,5.8-9.3,8.7-20.1,8.7-32.6s-2.9-23.5-8.7-32.7c-5.8-9.2-13.8-16.4-24.1-21.5-10.3-5.1-22.1-7.7-35.6-7.7h-56.3Z" fill="#7a9e7e" fill-rule="evenodd"/>
</svg>